#!OML:ASF F:\VICON\USERDATA\INSTALL\SteveWalk\SteveWalk.ASF
:FULLY-SPECIFIED
:DEGREES
16
root -0.350177 16.1441 -41.7346 18.5163 -7.47214 -1.15924
lowerback -15.7413 2.91653 0.303188
upperback -4.46796 3.74487 0.911415
thorax 4.01486 1.85061 1.49105
lowerneck -4.01709 -0.616633 0.538535
upperneck 7.73711 -0.552854 -3.90116
head 3.18047 -0.403593 -1.38853
rclavicle -5.18331e-014 -9.14409e-015
rhumerus -17.2141 9.47 -83.2656
rradius 53.2794
rwrist -12.5775
rhand -18.0502 -28.0627
rfingers 7.12502
rthumb 8.22188 -57.8827
lclavicle -5.18331e-014 -9.14409e-015
lhumerus -53.846 17.9484 69.0259
lradius 15.7509
lwrist -27.2292
lhand -12.9353 -16.3203
lfingers 7.12502
lthumb 13.1555 13.2447
rfemur -4.53916 -7.60508 21.3833
rtibia 20.6585
rfoot -26.9205 14.9395
rtoes -10.9408
lfemur -48.5228 8.28645 -23.6588
ltibia 9.73392
lfoot -7.98866 1.86715
ltoes -4.95447
17
root -0.339244 16.1128 -41.4988 18.6106 -7.42279 -1.13284
lowerback -15.7464 2.93953 0.151803
upperback -4.51296 3.80595 0.782925
thorax 3.96803 1.88084 1.4512
lowerneck -4.32393 -0.621521 0.625248
upperneck 7.7774 -0.576463 -3.73232
head 3.25195 -0.409638 -1.35297
rclavicle -1.0312e-014 -8.34896e-015
rhumerus -17.2348 9.33736 -83.1484
rradius 54.0978
rwrist -13.0525
rhand -18.0976 -29.0733
rfingers 7.12502
rthumb 8.17613 -58.8951
lclavicle -1.0312e-014 -8.34896e-015
lhumerus -54.371 19.2695 67.152
lradius 15.1821
lwrist -28.9802
lhand -13.5656 -16.8442
lfingers 7.12502
lthumb 12.5479 12.759
rfemur -3.7271 -7.30727 21.0486
rtibia 20.5699
rfoot -26.2101 15.2808
rtoes -11.5683
lfemur -48.7491 7.65586 -23.4819
ltibia 9.95851
lfoot -7.80611 1.24562
ltoes -5.31404
18
root -0.331181 16.073 -41.2562 18.6252 -7.36074 -1.0632
lowerback -17.2012 2.89152 0.024008
upperback -3.66783 3.75407 0.684157
thorax 5.64483 1.83335 1.52438
lowerneck -4.6365 -0.587754 0.758037
upperneck 7.02268 -0.56553 -3.69078
head 3.05309 -0.394831 -1.35545
rclavicle -2.06985e-014 -7.95139e-015
rhumerus -15.9527 9.30283 -82.7297
rradius 55.1975
rwrist -14.798
rhand -17.7581 -33.511
rfingers 7.12502
rthumb 8.50379 -63.3197
lclavicle -2.06985e-014 -7.95139e-015
lhumerus -54.0662 21.5344 65.2005
lradius 14.636
lwrist -30.9673
lhand -13.7668 -17.4291
lfingers 7.12502
lthumb 12.354 12.1859
rfemur -3.05768 -7.05762 20.6924
rtibia 20.8489
rfoot -25.4542 15.678
rtoes -13.5715
lfemur -48.7397 6.99126 -23.3423
ltibia 10.2587
lfoot -7.71656 0.989405
ltoes -11.3337
19
root -0.32588 16.0416 -41.0064 18.5393 -7.16252 -0.972567
lowerback -15.7615 2.88497 -0.355171
upperback -4.66049 3.82413 0.577512
thorax 3.80127 1.89083 1.51874
lowerneck -4.33072 -0.668444 0.746344
upperneck 7.81053 -0.670879 -3.44394
head 3.26149 -0.442192 -1.28357
rclavicle -2.04686e-014 3.18055e-015
rhumerus -17.9724 9.08136 -82.8333
rradius 56.0034
rwrist -14.5857
rhand -17.9504 -33.7719
rfingers 7.12502
rthumb 8.31818 -63.5881
lclavicle -2.04686e-014 3.18055e-015
lhumerus -56.1443 21.6172 63.266
lradius 14.5831
lwrist -31.8343
lhand -13.9386 -17.5982
lfingers 7.12502
lthumb 12.1884 12.0267
rfemur -2.33328 -6.7676 20.3443
rtibia 21.4904
rfoot -24.7447 15.9767
rtoes -16.1753
lfemur -48.4231 6.21251 -23.1353
ltibia 10.7533
lfoot -7.97579 0.956261
ltoes -9.19537
20
root -0.322232 16.005 -40.751 18.4659 -7.03788 -0.836435
lowerback -16.7435 2.79472 -0.573412
upperback -4.08338 3.75075 0.390011
thorax 4.93882 1.83655 1.50714
lowerneck -4.65674 -0.585161 0.768844
upperneck 7.41954 -0.605614 -3.00262
head 3.18997 -0.392149 -1.13806
rclavicle -6.58847e-014 -2.82274e-014
rhumerus -17.6396 8.82154 -82.908
rradius 56.5009
rwrist -14.3009
rhand -18.1724 -34.4154
rfingers 7.12502
rthumb 8.1039 -64.24
lclavicle -6.58847e-014 -2.82274e-014
lhumerus -56.2324 23.5635 61.0959
lradius 14.1772
lwrist -33.5618
lhand -14.1106 -17.997
lfingers 7.12502
lthumb 12.0224 11.6377
rfemur -1.67833 -6.11839 19.9433
rtibia 22.3256
rfoot -23.5479 16.4805
rtoes -13.5404
lfemur -48.3146 5.32354 -22.8911
ltibia 11.9061
lfoot -8.32546 1.24224
ltoes -8.93618
21
root -0.316076 15.9562 -40.4925 18.424 -6.75106 -0.947346
lowerback -15.9162 2.7376 -1.05242
upperback -4.72102 3.74022 0.566935
thorax 3.77772 1.84955 1.88973
lowerneck -4.60207 -0.652514 0.518395
upperneck 8.02757 -0.685038 -2.7309
head 3.38727 -0.431903 -1.0144
rclavicle -4.75841e-014 -3.57812e-015
rhumerus -19.3743 8.62551 -82.6489
rradius 57.2314
rwrist -14.0761
rhand -18.1948 -34.7495
rfingers 7.12502
rthumb 8.08236 -64.5749
lclavicle -4.75841e-014 -3.57812e-015
lhumerus -58.11 24.6791 58.5455
lradius 13.7519
lwrist -35.4399
lhand -14.4808 -18.5963
lfingers 7.12502
lthumb 11.6655 11.0589
rfemur -0.995321 -5.4866 19.8743
rtibia 23.0679
rfoot -22.2993 16.8916
rtoes -10.6105
lfemur -48.6614 4.40364 -22.4595
ltibia 13.9947
lfoot -8.5825 2.10273
ltoes -14.7871
22
root -0.307966 15.9207 -40.2303 18.3897 -6.5788 -0.835473
lowerback -17.1513 2.61298 -1.38454
upperback -4.05886 3.64525 0.538799
thorax 5.12463 1.77381 2.12225
lowerneck -5.00575 -0.669835 0.409962
upperneck 7.70654 -0.724424 -2.4979
head 3.35328 -0.44599 -0.920614
rclavicle -2.64135e-014 -9.14409e-015
rhumerus -19.0303 8.46578 -82.4265
rradius 57.5606
rwrist -13.9275
rhand -18.4067 -34.7858
rfingers 7.12502
rthumb 7.87777 -64.619
lclavicle -2.64135e-014 -9.14409e-015
lhumerus -58.6475 27.3082 55.8244
lradius 13.2934
lwrist -37.79
lhand -15.056 -18.9718
lfingers 7.12502
lthumb 11.1107 10.7141
rfemur -0.397199 -5.03443 19.5685
rtibia 23.7678
rfoot -21.5997 16.6262
rtoes -14.966
lfemur -49.092 3.51748 -22.3176
ltibia 16.5395
lfoot -7.79619 3.01531
ltoes -18.3498
23
root -0.299802 15.9187 -39.958 18.4041 -6.46849 -0.77337
lowerback -16.7655 2.54649 -1.76186
upperback -4.54734 3.61805 0.462409
thorax 4.38147 1.77521 2.20904
lowerneck -4.7229 -0.727339 0.323671
upperneck 8.01839 -0.818344 -2.15555
head 3.4054 -0.481704 -0.79777
rclavicle 4.9106e-015 -2.98177e-015
rhumerus -20.6601 8.39143 -82.5472
rradius 58.1814
rwrist -13.9238
rhand -18.8707 -35.4465
rfingers 7.12502
rthumb 7.42993 -65.296
lclavicle 4.9106e-015 -2.98177e-015
lhumerus -60.1491 27.7698 53.8566
lradius 13.2328
lwrist -38.2364
lhand -15.4506 -18.9507
lfingers 7.12502
lthumb 10.7302 10.7553
rfemur 0.102528 -4.6891 19.3
rtibia 24.4393
rfoot -20.3714 16.7774
rtoes -18.6781
lfemur -49.6528 3.30029 -22.5691
ltibia 19.3003
lfoot -5.46649 2.66725
ltoes -18.9759
24
root -0.288194 15.9336 -39.6855 18.4816 -6.21023 -0.72548
lowerback -16.3207 2.49982 -1.96245
upperback -5.0958 3.58659 0.271982
thorax 3.56495 1.77864 2.07166
lowerneck -4.37222 -0.814637 0.488672
upperneck 8.14749 -0.971072 -1.87132
head 3.38015 -0.539984 -0.738197
rclavicle 3.21441e-014 -3.8763e-015
rhumerus -22.6795 8.51511 -82.937
rradius 58.1646
rwrist -12.4191
rhand -19.6593 -31.6561
rfingers 7.12502
rthumb 6.66873 -61.5311
lclavicle 3.21441e-014 -3.8763e-015
lhumerus -61.6998 28.3288 51.2984
lradius 13.0687
lwrist -39.2838
lhand -15.6602 -18.6419
lfingers 7.12502
lthumb 10.528 11.0745
rfemur 0.440624 -4.49969 19.0496
rtibia 25.2398
rfoot -17.9473 17.9294
rtoes -16.9336
lfemur -50.3639 2.52708 -22.2555
ltibia 22.0451
lfoot -3.08429 2.28716
ltoes -16.815
